<?xml version="1.0" standalone="no"?>
<!DOCTYPE svg PUBLIC "-//W3C//DTD SVG 20010904//EN"
 "http://www.w3.org/TR/2001/REC-SVG-20010904/DTD/svg10.dtd">
<svg version="1.0" xmlns="http://www.w3.org/2000/svg"
 width="288.000000pt" height="288.000000pt" viewBox="0 0 288.000000 288.000000"
 preserveAspectRatio="xMidYMid meet">
<metadata>
Created by potrace 1.14, written by Peter Selinger 2001-2017
</metadata>
<g transform="translate(0.000000,288.000000) scale(0.100000,-0.100000)"
fill="#000000" stroke="none">
<path d="M1574 2586 c-272 -51 -444 -164 -444 -294 0 -26 -7 -33 -64 -60 -71
-34 -134 -90 -160 -140 -14 -26 -17 -59 -17 -140 1 -155 -6 -201 -33 -206
-274 -49 -431 -122 -485 -226 -24 -47 -26 -88 -23 -470 3 -283 8 -307 74 -369
39 -37 148 -96 215 -117 140 -44 410 -66 546 -45 l47 8 10 -37 c18 -67 61
-112 160 -164 98 -51 145 -66 300 -91 111 -18 356 -13 464 10 144 31 256 80
323 142 62 57 75 90 72 189 -1 46 1 87 4 91 4 3 1 13 -6 21 -9 13 -9 14 1 8 6
-4 12 -3 12 3 0 5 -5 13 -10 16 -8 5 -7 11 1 21 6 8 7 14 2 14 -6 0 -11 33
-12 73 -4 157 -53 235 -190 299 l-71 33 0 76 c0 89 -21 166 -55 208 -25 29
-25 32 -25 203 0 95 3 191 6 213 7 39 26 70 38 58 3 -4 6 -1 6 5 0 7 3 11 8
10 11 -4 114 67 139 96 49 56 56 83 51 196 -4 74 -11 116 -23 140 -45 88 -165
161 -340 206 -86 23 -125 27 -275 29 -113 2 -200 -1 -246 -9z"/>
</g>
</svg>
